<svg version="1.1" id="Layer_1" xmlns="http://www.w3.org/2000/svg" xmlns:xlink="http://www.w3.org/1999/xlink" x="0px" y="0px"
	 width="100%" viewBox="0 0 825 825" enable-background="new 0 0 825 825" xml:space="preserve">
<path fill="#FF880C" opacity="1.000000" stroke="none" 
	d="
M519.000000,826.000000 
	C346.000061,826.000000 173.500107,826.000000 1.000116,826.000000 
	C1.000077,551.000122 1.000077,276.000275 1.000039,1.000300 
	C275.999786,1.000200 550.999573,1.000200 825.999512,1.000100 
	C825.999634,275.999695 825.999634,550.999390 825.999817,825.999512 
	C723.833313,826.000000 621.666687,826.000000 519.000000,826.000000 
M580.163513,253.349747 
	C569.136475,232.429398 554.010498,214.947189 535.064819,200.927246 
	C508.027924,180.919785 477.703613,174.116974 444.830811,181.007248 
	C423.861908,185.402420 409.042725,197.969940 400.853394,218.136551 
	C393.803314,235.497696 392.136322,253.834183 392.020264,272.114288 
	C391.574890,342.264160 391.844238,412.418549 391.818207,482.571259 
	C391.817474,484.601990 391.495789,486.632599 391.302399,488.915375 
	C389.325653,488.445343 388.070953,488.155365 386.820343,487.848480 
	C362.531281,481.887573 342.305695,469.815674 327.126495,449.470428 
	C304.344940,418.935486 294.379913,384.069733 292.350891,346.716858 
	C291.514618,331.321625 292.630676,315.803223 293.198242,300.353302 
	C293.870178,282.061737 297.230988,264.211914 304.217133,247.258636 
	C316.342407,217.834030 336.192780,196.968079 368.827240,190.438385 
	C368.827240,186.785645 368.827240,182.900833 368.827240,178.139954 
	C359.814484,179.078629 351.251007,179.714127 342.767120,180.912827 
	C329.291412,182.816864 316.236877,186.352173 304.236755,192.975464 
	C278.601715,207.124329 259.727844,227.727631 246.656693,253.800385 
	C237.249435,272.564850 230.635559,292.131470 228.692169,313.194275 
	C226.775406,333.968170 227.176392,354.547333 231.744598,374.997192 
	C236.143417,394.688812 243.644028,413.082214 253.780930,430.487762 
	C263.234985,446.720856 274.840332,461.154358 289.564758,472.835632 
	C303.835724,484.157257 319.875031,492.211548 337.265289,497.811707 
	C353.546295,503.054657 370.238708,506.045013 387.140869,507.847076 
	C391.811707,508.345093 391.897156,510.333221 391.890594,513.867004 
	C391.811981,556.191711 391.839874,598.516724 391.839905,640.841614 
	C391.839905,642.792786 391.839905,644.743958 391.839905,646.848938 
	C404.557617,646.848938 416.738159,646.848938 429.158905,646.848938 
	C429.158905,644.580139 429.158936,642.760132 429.158936,640.940186 
	C429.158508,598.948547 429.158051,556.956848 429.157928,514.965210 
	C429.157898,513.798767 428.767303,512.418701 429.256622,511.516815 
	C429.962006,510.216827 431.210724,508.425659 432.394562,508.288879 
	C450.771301,506.165314 469.019379,503.486359 486.810303,498.173615 
	C506.245209,492.369934 524.336121,483.888763 539.670410,470.491730 
	C562.855469,450.235840 577.880310,424.521088 588.240234,395.816559 
	C598.049316,368.638519 600.051453,340.671143 597.336121,312.127258 
	C595.389465,291.663849 590.087585,272.227875 580.163513,253.349747 
z"/>
<path fill="#FFFFFE" opacity="1.000000" stroke="none" 
	d="
M580.360962,253.665741 
	C590.087585,272.227875 595.389465,291.663849 597.336121,312.127258 
	C600.051453,340.671143 598.049316,368.638519 588.240234,395.816559 
	C577.880310,424.521088 562.855469,450.235840 539.670410,470.491730 
	C524.336121,483.888763 506.245209,492.369934 486.810303,498.173615 
	C469.019379,503.486359 450.771301,506.165314 432.394562,508.288879 
	C431.210724,508.425659 429.962006,510.216827 429.256622,511.516815 
	C428.767303,512.418701 429.157898,513.798767 429.157928,514.965210 
	C429.158051,556.956848 429.158508,598.948547 429.158936,640.940186 
	C429.158936,642.760132 429.158905,644.580139 429.158905,646.848938 
	C416.738159,646.848938 404.557617,646.848938 391.839905,646.848938 
	C391.839905,644.743958 391.839905,642.792786 391.839905,640.841614 
	C391.839874,598.516724 391.811981,556.191711 391.890594,513.867004 
	C391.897156,510.333221 391.811707,508.345093 387.140869,507.847076 
	C370.238708,506.045013 353.546295,503.054657 337.265289,497.811707 
	C319.875031,492.211548 303.835724,484.157257 289.564758,472.835632 
	C274.840332,461.154358 263.234985,446.720856 253.780930,430.487762 
	C243.644028,413.082214 236.143417,394.688812 231.744598,374.997192 
	C227.176392,354.547333 226.775406,333.968170 228.692169,313.194275 
	C230.635559,292.131470 237.249435,272.564850 246.656693,253.800385 
	C259.727844,227.727631 278.601715,207.124329 304.236755,192.975464 
	C316.236877,186.352173 329.291412,182.816864 342.767120,180.912827 
	C351.251007,179.714127 359.814484,179.078629 368.827240,178.139954 
	C368.827240,182.900833 368.827240,186.785645 368.827240,190.438385 
	C336.192780,196.968079 316.342407,217.834030 304.217133,247.258636 
	C297.230988,264.211914 293.870178,282.061737 293.198242,300.353302 
	C292.630676,315.803223 291.514618,331.321625 292.350891,346.716858 
	C294.379913,384.069733 304.344940,418.935486 327.126495,449.470428 
	C342.305695,469.815674 362.531281,481.887573 386.820343,487.848480 
	C388.070953,488.155365 389.325653,488.445343 391.302399,488.915375 
	C391.495789,486.632599 391.817474,484.601990 391.818207,482.571259 
	C391.844238,412.418549 391.574890,342.264160 392.020264,272.114288 
	C392.136322,253.834183 393.803314,235.497696 400.853394,218.136551 
	C409.042725,197.969940 423.861908,185.402420 444.830811,181.007248 
	C477.703613,174.116974 508.027924,180.919785 535.064819,200.927246 
	C554.010498,214.947189 569.136475,232.429398 580.360962,253.665741 
M434.483307,239.147522 
	C432.751892,248.883026 429.666870,258.598755 429.524414,268.357483 
	C428.923645,309.508545 429.187866,350.672455 429.160156,391.831665 
	C429.139496,422.493927 429.187378,453.156281 429.115967,483.818390 
	C429.107422,487.486816 429.458313,489.731201 434.088654,488.092072 
	C436.679596,487.174896 439.628693,487.310425 442.392883,486.834991 
	C461.082458,483.620178 478.507172,477.229431 493.886383,465.907074 
	C509.469147,454.434875 520.937622,439.603882 528.930298,422.065430 
	C542.664856,391.927277 544.813965,360.167206 541.968140,327.718536 
	C539.977356,305.019226 533.739258,283.610413 522.414307,263.797882 
	C514.192627,249.414368 504.471039,236.249435 490.067810,227.354980 
	C480.772095,221.614609 470.719666,217.878891 459.626068,218.893341 
	C447.303253,220.020172 439.490906,227.356918 434.483307,239.147522 
z"/>
<path fill="#FF890D" opacity="1.000000" stroke="none" 
	d="
M434.681671,238.816727 
	C439.490906,227.356918 447.303253,220.020172 459.626068,218.893341 
	C470.719666,217.878891 480.772095,221.614609 490.067810,227.354980 
	C504.471039,236.249435 514.192627,249.414368 522.414307,263.797882 
	C533.739258,283.610413 539.977356,305.019226 541.968140,327.718536 
	C544.813965,360.167206 542.664856,391.927277 528.930298,422.065430 
	C520.937622,439.603882 509.469147,454.434875 493.886383,465.907074 
	C478.507172,477.229431 461.082458,483.620178 442.392883,486.834991 
	C439.628693,487.310425 436.679596,487.174896 434.088654,488.092072 
	C429.458313,489.731201 429.107422,487.486816 429.115967,483.818390 
	C429.187378,453.156281 429.139496,422.493927 429.160156,391.831665 
	C429.187866,350.672455 428.923645,309.508545 429.524414,268.357483 
	C429.666870,258.598755 432.751892,248.883026 434.681671,238.816727 
z"/>
</svg>