<svg version="1.1" id="Layer_1" xmlns="http://www.w3.org/2000/svg" xmlns:xlink="http://www.w3.org/1999/xlink" x="0px" y="0px"
	 width="100%" viewBox="0 0 825 825" enable-background="new 0 0 825 825" xml:space="preserve">
<path fill="#FF880C" opacity="1.000000" stroke="none" 
	d="
M457.000000,826.000000 
	C304.666718,826.000000 152.833420,826.000000 1.000102,826.000000 
	C1.000068,551.000122 1.000068,276.000244 1.000034,1.000286 
	C275.999786,1.000191 550.999573,1.000191 825.999512,1.000095 
	C825.999695,275.999725 825.999695,550.999451 825.999878,825.999573 
	C703.166687,826.000000 580.333313,826.000000 457.000000,826.000000 
M514.627258,490.650421 
	C527.549927,488.619171 539.938843,484.870697 551.600586,478.906769 
	C575.457825,466.705963 590.795044,446.968109 600.945374,422.728210 
	C616.344482,385.953583 617.612976,348.760071 599.305237,313.104523 
	C581.570435,278.564697 554.179077,256.711090 512.622437,258.477844 
	C492.655853,259.326721 476.853882,270.542969 470.270081,289.379333 
	C465.985321,301.638123 464.973755,314.435669 464.936951,327.263702 
	C464.799164,375.252472 464.881622,423.241913 464.881470,471.231079 
	C464.881470,473.483307 464.881470,475.735535 464.881470,478.881195 
	C454.148224,476.127045 444.584167,473.342438 436.456879,467.347626 
	C416.585480,452.690063 406.252258,431.957092 399.879456,408.784882 
	C395.095703,391.390778 394.861176,373.619049 395.102478,355.771423 
	C395.301910,341.021545 397.138947,326.511353 401.943329,312.569702 
	C409.582245,290.402618 422.810699,273.659637 447.091461,268.341339 
	C451.101990,267.462891 449.916901,264.132721 449.574463,261.845978 
	C449.385254,260.582458 447.125702,258.657440 445.850616,258.696625 
	C440.393646,258.864441 434.940399,259.532898 429.513611,260.234222 
	C406.793518,263.170471 388.816406,274.757568 374.900085,292.246582 
	C356.659576,315.169952 348.174072,341.562164 348.474670,371.090820 
	C348.770416,400.147614 357.645508,426.139191 374.531982,449.328033 
	C394.864380,477.248779 424.048218,489.089294 457.319397,492.645508 
	C464.851868,493.450653 464.879364,493.255951 464.880249,500.890289 
	C464.883575,529.550476 464.960510,558.211121 464.798492,586.870422 
	C464.773987,591.204468 465.994019,592.886719 470.454437,592.584656 
	C475.430481,592.247803 480.446991,592.516968 485.445831,592.506165 
	C491.931824,592.492126 491.936981,592.485291 491.937469,585.929871 
	C491.939575,556.936401 492.020966,527.942444 491.843079,498.950073 
	C491.818451,494.937561 493.007416,493.290283 496.966187,492.946808 
	C502.590210,492.458801 508.177429,491.546722 514.627258,490.650421 
M313.588898,364.660889 
	C313.947968,363.221436 314.423828,361.799957 314.648499,360.339813 
	C317.673279,340.682312 320.531219,320.998199 323.697021,301.363617 
	C327.130829,280.066528 330.843231,258.814362 334.543549,236.894714 
	C432.527527,236.894714 530.886658,236.894714 629.286133,236.894714 
	C629.286133,232.391693 629.286133,228.499908 629.286133,224.219131 
	C626.745728,224.219131 624.604370,224.219131 622.463074,224.219131 
	C528.821899,224.219131 435.180786,224.219849 341.539642,224.217331 
	C336.041321,224.217194 330.541992,224.249283 325.045074,224.153641 
	C322.121002,224.102783 321.082031,225.371964 320.721191,228.280914 
	C319.709320,236.438873 318.374359,244.558731 317.067322,252.677612 
	C315.368042,263.232483 313.560913,273.769989 311.822052,284.318542 
	C309.708099,297.142151 307.617737,309.969635 305.515686,322.795227 
	C303.463287,335.317810 301.338959,347.829071 299.374756,360.365448 
	C297.336945,373.371674 295.536224,386.415192 293.478638,399.418121 
	C291.473053,412.092041 289.172668,424.719482 287.187531,437.396423 
	C285.154022,450.382507 283.447815,463.419891 281.410614,476.405334 
	C279.346802,489.560425 277.038757,502.677094 274.867218,515.815430 
	C273.924561,521.518677 273.055878,527.234131 272.153595,532.944031 
	C270.372833,531.669189 269.567963,530.294128 268.865326,528.868652 
	C257.997620,506.819000 247.139603,484.764526 236.286530,462.707672 
	C223.164169,436.038910 209.990021,409.395264 196.997299,382.663452 
	C195.177521,378.919342 193.424881,378.369263 189.746323,380.282776 
	C176.493179,387.176910 163.082474,393.768250 149.728546,400.468567 
	C145.314911,402.683136 140.893021,404.881256 136.246521,407.200897 
	C138.369583,411.135559 140.058060,414.730835 142.246277,417.990662 
	C142.789322,418.799652 145.170425,419.089935 146.328201,418.641510 
	C150.332581,417.090546 154.155029,415.075562 158.074203,413.297729 
	C165.563919,409.900208 173.072495,406.544281 181.138885,402.916718 
	C212.689835,467.908417 244.057266,532.522095 275.424683,597.135803 
	C278.400146,585.264404 280.215363,573.607727 282.118073,561.965271 
	C284.212799,549.147644 286.423889,536.349121 288.517914,523.531433 
	C290.590607,510.844330 292.586853,498.144745 294.605011,485.448792 
	C296.334106,474.570923 298.045258,463.690186 299.767181,452.811157 
	C301.415649,442.396088 303.064636,431.981079 304.719147,421.566956 
	C306.395782,411.013428 308.087311,400.462311 309.757507,389.907776 
	C311.041473,381.793854 312.302429,373.676300 313.588898,364.660889 
z"/>
<path fill="#FFFCFA" opacity="1.000000" stroke="none" 
	d="
M514.203857,490.733124 
	C508.177429,491.546722 502.590210,492.458801 496.966187,492.946808 
	C493.007416,493.290283 491.818451,494.937561 491.843079,498.950073 
	C492.020966,527.942444 491.939575,556.936401 491.937469,585.929871 
	C491.936981,592.485291 491.931824,592.492126 485.445831,592.506165 
	C480.446991,592.516968 475.430481,592.247803 470.454437,592.584656 
	C465.994019,592.886719 464.773987,591.204468 464.798492,586.870422 
	C464.960510,558.211121 464.883575,529.550476 464.880249,500.890289 
	C464.879364,493.255951 464.851868,493.450653 457.319397,492.645508 
	C424.048218,489.089294 394.864380,477.248779 374.531982,449.328033 
	C357.645508,426.139191 348.770416,400.147614 348.474670,371.090820 
	C348.174072,341.562164 356.659576,315.169952 374.900085,292.246582 
	C388.816406,274.757568 406.793518,263.170471 429.513611,260.234222 
	C434.940399,259.532898 440.393646,258.864441 445.850616,258.696625 
	C447.125702,258.657440 449.385254,260.582458 449.574463,261.845978 
	C449.916901,264.132721 451.101990,267.462891 447.091461,268.341339 
	C422.810699,273.659637 409.582245,290.402618 401.943329,312.569702 
	C397.138947,326.511353 395.301910,341.021545 395.102478,355.771423 
	C394.861176,373.619049 395.095703,391.390778 399.879456,408.784882 
	C406.252258,431.957092 416.585480,452.690063 436.456879,467.347626 
	C444.584167,473.342438 454.148224,476.127045 464.881470,478.881195 
	C464.881470,475.735535 464.881470,473.483307 464.881470,471.231079 
	C464.881622,423.241913 464.799164,375.252472 464.936951,327.263702 
	C464.973755,314.435669 465.985321,301.638123 470.270081,289.379333 
	C476.853882,270.542969 492.655853,259.326721 512.622437,258.477844 
	C554.179077,256.711090 581.570435,278.564697 599.305237,313.104523 
	C617.612976,348.760071 616.344482,385.953583 600.945374,422.728210 
	C590.795044,446.968109 575.457825,466.705963 551.600586,478.906769 
	C539.938843,484.870697 527.549927,488.619171 514.203857,490.733124 
M556.459900,441.880402 
	C559.412720,435.745728 562.831055,429.786713 565.225830,423.441437 
	C571.019531,408.090454 571.847046,392.024323 571.668274,375.753510 
	C571.445923,355.515411 567.145447,336.418152 556.969849,318.915100 
	C548.878174,304.996429 539.005066,292.824493 522.216064,288.681641 
	C509.703430,285.594025 499.096954,290.827271 495.674927,303.214355 
	C493.487030,311.134186 492.144043,319.549103 492.088715,327.753326 
	C491.764069,375.897217 491.930084,424.044464 491.930695,472.190552 
	C491.930725,474.147064 491.930695,476.103607 491.930695,478.638458 
	C519.172546,475.907410 541.127747,465.471069 556.459900,441.880402 
z"/>
<path fill="#FFFAF8" opacity="1.000000" stroke="none" 
	d="
M313.581238,365.110626 
	C312.302429,373.676300 311.041473,381.793854 309.757507,389.907776 
	C308.087311,400.462311 306.395782,411.013428 304.719147,421.566956 
	C303.064636,431.981079 301.415649,442.396088 299.767181,452.811157 
	C298.045258,463.690186 296.334106,474.570923 294.605011,485.448792 
	C292.586853,498.144745 290.590607,510.844330 288.517914,523.531433 
	C286.423889,536.349121 284.212799,549.147644 282.118073,561.965271 
	C280.215363,573.607727 278.400146,585.264404 275.424683,597.135803 
	C244.057266,532.522095 212.689835,467.908417 181.138885,402.916718 
	C173.072495,406.544281 165.563919,409.900208 158.074203,413.297729 
	C154.155029,415.075562 150.332581,417.090546 146.328201,418.641510 
	C145.170425,419.089935 142.789322,418.799652 142.246277,417.990662 
	C140.058060,414.730835 138.369583,411.135559 136.246521,407.200897 
	C140.893021,404.881256 145.314911,402.683136 149.728546,400.468567 
	C163.082474,393.768250 176.493179,387.176910 189.746323,380.282776 
	C193.424881,378.369263 195.177521,378.919342 196.997299,382.663452 
	C209.990021,409.395264 223.164169,436.038910 236.286530,462.707672 
	C247.139603,484.764526 257.997620,506.819000 268.865326,528.868652 
	C269.567963,530.294128 270.372833,531.669189 272.153595,532.944031 
	C273.055878,527.234131 273.924561,521.518677 274.867218,515.815430 
	C277.038757,502.677094 279.346802,489.560425 281.410614,476.405334 
	C283.447815,463.419891 285.154022,450.382507 287.187531,437.396423 
	C289.172668,424.719482 291.473053,412.092041 293.478638,399.418121 
	C295.536224,386.415192 297.336945,373.371674 299.374756,360.365448 
	C301.338959,347.829071 303.463287,335.317810 305.515686,322.795227 
	C307.617737,309.969635 309.708099,297.142151 311.822052,284.318542 
	C313.560913,273.769989 315.368042,263.232483 317.067322,252.677612 
	C318.374359,244.558731 319.709320,236.438873 320.721191,228.280914 
	C321.082031,225.371964 322.121002,224.102783 325.045074,224.153641 
	C330.541992,224.249283 336.041321,224.217194 341.539642,224.217331 
	C435.180786,224.219849 528.821899,224.219131 622.463074,224.219131 
	C624.604370,224.219131 626.745728,224.219131 629.286133,224.219131 
	C629.286133,228.499908 629.286133,232.391693 629.286133,236.894714 
	C530.886658,236.894714 432.527527,236.894714 334.543549,236.894714 
	C330.843231,258.814362 327.130829,280.066528 323.697021,301.363617 
	C320.531219,320.998199 317.673279,340.682312 314.648499,360.339813 
	C314.423828,361.799957 313.947968,363.221436 313.581238,365.110626 
z"/>
<path fill="#FF890F" opacity="1.000000" stroke="none" 
	d="
M556.255432,442.183105 
	C541.127747,465.471069 519.172546,475.907410 491.930695,478.638458 
	C491.930695,476.103607 491.930725,474.147064 491.930695,472.190552 
	C491.930084,424.044464 491.764069,375.897217 492.088715,327.753326 
	C492.144043,319.549103 493.487030,311.134186 495.674927,303.214355 
	C499.096954,290.827271 509.703430,285.594025 522.216064,288.681641 
	C539.005066,292.824493 548.878174,304.996429 556.969849,318.915100 
	C567.145447,336.418152 571.445923,355.515411 571.668274,375.753510 
	C571.847046,392.024323 571.019531,408.090454 565.225830,423.441437 
	C562.831055,429.786713 559.412720,435.745728 556.255432,442.183105 
z"/>
</svg>